<svg width="84" height="90" viewBox="0 0 84 90" fill="none" xmlns="http://www.w3.org/2000/svg">
<path d="M47.4065 43.0834C47.693 42.6407 48.0367 42.224 48.245 41.7448C48.9117 40.2344 49.469 38.6771 50.1825 37.1927C50.7294 36.0677 51.4013 35 52.1096 33.9636C52.443 33.4636 52.9534 33.0573 53.4482 32.7032C54.6357 31.8542 56.219 31.7448 57.2086 32.4948C58.4169 33.4167 58.9898 34.6823 58.7242 36.1979C58.4221 37.9584 57.4482 39.3907 56.2711 40.6875C54.9378 42.1459 53.5211 43.5365 52.2346 45.0313C50.6825 46.8386 49.4273 48.8594 48.6982 51.1459C48.5263 51.6771 48.495 52.3125 48.5992 52.8646C48.7346 53.599 49.3336 53.8438 49.9378 53.4115C50.6148 52.9323 51.2294 52.3438 51.7867 51.724C53.0211 50.3386 54.2398 48.9479 55.8284 47.9375C57.4013 46.9375 58.8857 47.6719 58.9586 49.5573C58.9846 50.2344 58.9065 50.9479 58.7034 51.5938C57.6357 55.0729 55.5263 57.6875 52.1461 59.1875C50.6253 59.8594 49.1669 60.6146 47.9169 61.7448C47.2607 62.3282 46.7815 62.9584 46.594 63.8177C46.5315 64.1042 46.4325 64.3802 46.3284 64.6563C46.068 65.3334 45.6096 65.4584 45.1878 64.9011C43.8023 63.0834 42.2138 61.3438 41.7294 59.0365C40.8492 54.8698 38.2398 51.9896 34.943 49.5938C33.5836 48.6094 32.1565 47.7136 30.7242 46.8386C28.8336 45.6875 27.0263 44.4115 25.7086 42.6198C25.0575 41.7344 24.6305 40.6459 24.2763 39.5938C23.9794 38.724 24.3857 37.9532 25.1461 37.4115C26.8128 36.224 28.719 36.2969 30.1305 37.7709C31.0575 38.7448 31.7815 39.9167 32.6096 40.9948C33.4013 42.0313 34.1825 43.0834 35.0211 44.0886C35.4117 44.5573 35.9013 44.9584 36.3857 45.3334C36.7659 45.6302 37.1878 46.0104 37.719 45.6719C38.2815 45.3125 38.4221 44.7188 38.3544 44.1146C38.193 42.6511 37.4534 41.4271 36.6721 40.2136C35.0315 37.6667 33.3284 35.1459 31.844 32.5052C30.818 30.6667 30.0263 28.6823 29.3128 26.6979C28.995 25.8125 28.9482 24.7396 29.1044 23.8073C29.4169 21.9532 31.2138 21.1667 32.9169 22.0052C34.1044 22.5834 34.969 23.5417 35.4273 24.7344C36.3075 27.0261 37.0211 29.3854 37.8492 31.7032C38.3753 33.1563 38.9534 34.5938 39.5836 36.0052C39.7242 36.3282 40.2711 36.7761 40.469 36.7084C40.8388 36.5729 41.2815 36.1407 41.3492 35.7709C41.5107 34.8646 41.6044 33.9011 41.495 32.9896C41.1461 30.1042 40.6305 27.2396 40.2867 24.3542C39.87 20.8594 39.3232 17.349 40.2398 13.849C40.4794 12.9271 40.7815 11.9896 41.2346 11.1563C42.4169 9.00003 44.4378 8.6094 46.4013 10.0782C48.1773 11.4011 48.8909 13.3177 49.4378 15.3542C50.3388 18.6927 49.844 21.9688 49.068 25.2292C48.2919 28.4896 47.4169 31.7292 46.7138 35.0052C46.2763 37.0313 46.0159 39.1094 46.4742 41.1771C46.62 41.8282 46.9117 42.4427 47.1409 43.0729C47.2294 43.0782 47.318 43.0834 47.4065 43.0834Z" fill="#01427D"/>
<path d="M41.2759 79.3073C40.3905 80.6458 39.8905 82.0052 39.6352 83.4323C39.0832 86.526 37.2394 88.3906 34.2342 89.0885C33.4582 89.2708 32.5519 89.2188 31.7811 89.0104C30.7602 88.7344 30.2707 87.7396 30.6769 86.776C31.1561 85.6354 31.8227 84.5729 32.4738 83.5104C32.9894 82.6771 33.6405 81.9219 34.1457 81.0833C34.3905 80.6823 34.5415 80.1667 34.5571 79.6979C34.5832 78.724 33.9217 78.2083 32.9998 78.5208C32.3436 78.7448 31.6925 79.1094 31.1457 79.5417C29.755 80.651 28.4425 81.8542 27.0623 82.9792C23.8644 85.5885 20.1925 86.9323 16.0467 86.8125C14.1248 86.7604 12.2759 86.349 10.6613 85.2135C10.6248 85.1875 10.5727 85.1667 10.5363 85.1354C9.92691 84.599 9.19774 84.0885 9.33837 83.1458C9.47379 82.2135 10.2394 81.776 11.0363 81.5885C12.7082 81.1979 14.4009 80.8438 16.0988 80.6302C18.0311 80.3802 19.979 80.276 21.8227 79.5938C23.0571 79.1354 23.2759 78.4167 22.2863 77.5521C21.5467 76.901 20.63 76.349 19.6977 76.0417C17.5727 75.3438 15.3852 74.8281 13.2238 74.2292C11.4321 73.7292 9.71858 73.0625 8.20295 71.9479C6.26024 70.5208 6.33316 68.7135 8.40608 67.4531C10.2759 66.3177 12.3332 66.2031 14.4321 66.4583C17.3957 66.8177 20.0623 68.0677 22.7394 69.276C25.8071 70.6563 28.9425 71.8438 32.2863 72.3542C33.6196 72.5573 34.9894 72.5938 36.3436 72.6146C38.6248 72.6458 40.9113 72.4844 43.1769 72.6458C44.6769 72.7552 46.0155 72.2031 47.4425 72.1042C48.2342 72.0521 49.0259 72.026 49.8123 72.0104C50.3436 72 50.4217 72.2813 50.1405 72.6667C49.854 73.0625 49.5259 73.4323 49.1873 73.7917C47.4634 75.6198 47.1092 77.7656 47.755 80.1094C48.255 81.9219 48.3123 83.6563 47.1717 85.2656C46.6769 85.9635 46.0363 86.4948 45.1665 86.6875C44.078 86.9323 43.1457 86.4219 42.9269 85.3281C42.7655 84.5417 42.7811 83.7135 42.7498 82.9063C42.703 81.5729 42.1665 80.4427 41.2759 79.3073Z" fill="#DCB253"/>
<mask id="mask0_211_13" style="mask-type:luminance" maskUnits="userSpaceOnUse" x="56" y="0" width="28" height="37">
<path d="M56.2866 0.984375H83.6408V36.125H56.2866V0.984375Z" fill="white"/>
</mask>
<g mask="url(#mask0_211_13)">
<path d="M73.5419 20.099C74.2867 19.6771 75.0315 19.2605 75.7763 18.8438C76.9534 18.1771 78.0888 17.4063 79.3284 16.8751C80.1148 16.5417 81.0523 16.4688 81.9221 16.4428C83.1513 16.4063 83.7971 17.1146 83.6096 18.3178C83.495 19.0469 83.2138 19.8126 82.8127 20.4323C81.2763 22.7917 79.1877 24.3594 76.3075 24.7605C75.0367 24.9376 73.7815 25.224 72.5263 25.4948C71.3284 25.7448 70.3805 26.3698 69.8127 27.4792C69.4377 28.2136 69.6044 28.5573 70.4117 28.7709C70.8648 28.8907 71.3336 28.9376 71.7867 29.0626C72.5315 29.2657 72.8909 29.849 72.6409 30.5886C72.0367 32.3542 70.6252 33.1928 68.9117 33.6198C68.3648 33.7553 67.7971 33.8438 67.2294 33.8698C65.5575 33.9376 64.2555 34.8073 62.9586 35.7292C62.6825 35.9271 62.3075 35.9896 61.9742 36.1094C61.9065 35.7657 61.7294 35.4063 61.7815 35.0834C61.943 34.1667 62.1305 33.2448 62.4325 32.3646C62.9169 30.9636 62.5888 29.7813 61.7346 28.6355C60.5211 27.0209 59.3284 25.3803 58.1825 23.7188C57.3127 22.4584 56.5419 21.1407 56.318 19.5782C56.0107 17.474 58.094 15.4636 59.9638 16.1719C60.5471 16.3959 61.1148 16.9688 61.4169 17.5261C61.8961 18.4271 62.1461 19.4532 62.5107 20.4167C62.7086 20.9376 62.9377 21.4428 63.193 22.0417C64.0888 21.4323 64.1825 20.6146 64.0315 19.8698C63.6148 17.8021 63.0575 15.7657 62.5992 13.7032C62.2034 11.9323 61.8232 10.1563 61.5159 8.36464C61.4273 7.83339 61.5315 7.22401 61.6982 6.69797C62.0211 5.66672 62.7138 4.91151 63.8284 4.76568C65.0055 4.61464 65.9846 5.16672 66.4482 6.19797C66.8805 7.16672 67.1565 8.26047 67.2294 9.31776C67.3544 11.1094 67.2086 12.9167 67.2815 14.7136C67.3232 15.7188 67.5419 16.7136 67.7294 17.7032C67.7919 18.0469 68.0107 18.3646 68.1721 18.7292C69.0419 18.3126 69.4221 17.6042 69.6357 16.8542C70.1669 14.9844 70.5784 13.0834 71.12 11.2136C71.6825 9.2813 72.1877 7.31255 72.9898 5.47922C73.9482 3.29693 75.5888 1.66672 78.0367 1.16672C78.8492 1.00005 79.7711 1.05214 80.5836 1.24485C82.094 1.60422 82.8752 3.00005 82.3492 4.53651C81.9221 5.7761 81.3075 6.98964 80.5836 8.0938C79.2555 10.1146 77.745 12.0105 76.3909 14.0157C75.443 15.4271 74.6096 16.9167 73.7763 18.3959C73.5263 18.849 73.443 19.3959 73.2867 19.8959C73.37 19.9636 73.4534 20.0313 73.5419 20.099Z" fill="#004AAD"/>
</g>
<path d="M19.474 19.9115C19.2865 18.9583 19.0678 18.0104 18.9272 17.0469C18.7501 15.8594 18.5417 14.6615 18.5313 13.4636C18.5105 11.6823 19.8855 10.9063 21.474 11.7448C23.0209 12.5573 23.9376 13.9427 24.2761 15.5677C24.698 17.5833 24.8803 19.6511 25.0886 21.7083C25.2397 23.1979 25.2657 24.7083 25.3334 26.2083C25.3959 27.6042 26.0365 28.7344 26.8282 29.8386C27.3438 30.5469 27.7344 31.3542 28.1147 32.1458C28.3699 32.6719 28.1147 32.9531 27.5261 32.7917C26.6928 32.5677 25.8751 32.2969 25.0574 32.0156C22.5261 31.1354 21.198 31.6354 19.8803 33.9531C19.4792 34.6615 19.0834 35.3802 18.5886 36.0208C17.3907 37.5729 15.8022 37.8802 13.9688 36.9479C11.8438 35.875 11.4272 34.2136 11.7605 32.5677C11.8647 32.0677 12.4532 31.5625 12.948 31.2865C13.5261 30.9531 14.2449 30.8594 14.9063 30.6771C15.8959 30.4011 16.7188 29.8854 17.2709 29.0104C17.6928 28.3386 17.573 27.875 16.823 27.6094C15.2449 27.0521 13.6303 26.5886 12.0417 26.0625C10.5626 25.5729 9.06778 25.0469 7.93236 23.9375C7.33861 23.3542 6.89591 22.5886 6.49486 21.8438C6.14591 21.1979 6.3282 20.5365 6.84903 20.0156C7.35945 19.5 8.05737 19.5469 8.58341 19.8021C9.79174 20.3906 10.9428 21.1094 12.0886 21.8177C12.823 22.2656 13.474 22.8542 14.224 23.2604C14.9115 23.6354 15.3959 23.2813 15.2344 22.5208C15.0782 21.7865 14.8178 21.0261 14.4063 20.4115C12.9324 18.224 11.3751 16.0886 9.83861 13.9427C9.28132 13.1563 8.58862 12.4531 8.13549 11.6146C7.56778 10.5677 7.07299 9.45835 6.75007 8.31772C6.39591 7.07814 7.21882 6.16668 8.5157 6.06772C10.099 5.95314 11.4428 6.50522 12.3386 7.76564C13.1876 8.95835 13.8751 10.2761 14.5417 11.5886C15.7084 13.8906 16.7917 16.2396 17.9584 18.5417C18.2449 19.1042 18.7344 19.5677 19.1303 20.0781C19.2449 20.0208 19.3594 19.9688 19.474 19.9115Z" fill="#373ED4"/>
<path d="M13.9897 55.0155C12.4949 55.2655 11.0574 55.4999 9.63033 55.7499C7.78658 56.0728 6.09908 55.6509 4.51054 54.7395C3.297 54.0467 2.78658 52.9634 3.1772 52.0103C3.547 51.1093 4.6772 50.6822 6.00533 51.0311C7.11991 51.328 8.19804 51.7603 9.31262 52.0468C9.84908 52.1822 10.4376 52.1665 11.0001 52.1353C11.4637 52.1145 11.7293 51.8176 11.5522 51.3228C11.3855 50.8645 11.2085 50.4009 10.9741 49.9738C9.69804 47.6613 7.72929 46.0624 5.59908 44.5728C4.297 43.6665 3.10429 42.5572 2.04179 41.3749C0.942829 40.1509 0.645954 38.5988 1.20325 37.0103C1.90637 34.9895 3.88033 34.354 5.59908 35.6197C8.45845 37.7186 10.5782 40.4738 12.2762 43.5468C13.1564 45.1353 13.8543 46.8228 14.6564 48.4582C14.9376 49.0363 15.2189 49.6197 15.5887 50.1353C16.2032 50.9999 17.1876 50.8645 17.5991 49.8749C17.9585 49.0051 17.922 48.104 17.7137 47.1926C17.4949 46.2395 17.2501 45.2759 17.1928 44.3072C17.1251 43.1665 17.8803 42.3124 19.0001 41.9895C19.8022 41.7603 20.672 42.177 21.2501 43.177C22.3439 45.0572 22.8855 47.1093 23.1564 49.2603C23.4897 51.9582 23.9064 54.6509 24.3282 57.3384C24.4012 57.7811 24.7032 58.1874 24.8387 58.6249C24.922 58.9009 25.0157 59.3228 24.8751 59.479C24.7345 59.6457 24.297 59.6613 24.0262 59.5936C22.7553 59.2707 21.4845 58.8853 20.172 59.2915C19.5157 59.4947 18.9064 59.8332 18.2762 60.104C16.672 60.7915 15.1147 61.6561 13.448 62.1093C11.7293 62.5728 10.0105 62.1978 8.61991 60.9165C8.40637 60.7186 8.21887 60.479 8.06783 60.229C7.63033 59.4895 7.75533 58.9999 8.49491 58.5624C9.76575 57.802 11.1772 57.5155 12.6355 57.3332C13.4845 57.229 14.3335 57.0728 15.1668 56.8645C15.5001 56.7759 15.8335 56.5311 16.073 56.2707C16.4168 55.9061 16.3699 55.5259 15.823 55.3905C15.2085 55.2343 14.5782 55.1301 13.9897 55.0155Z" fill="#004AAD"/>
<path d="M66.9063 45.2501C67.7761 44.9949 68.1615 44.4168 68.4271 43.7866C68.8281 42.8647 69.1511 41.9064 69.4844 40.9532C70.2761 38.6668 71.5573 36.7345 73.6771 35.5001C74.4219 35.0678 75.3125 34.7866 76.1667 34.6772C77.2396 34.5366 77.9271 35.2553 77.9688 36.3543C78.0261 37.7709 77.5 39.0366 76.6927 40.1407C75.5 41.7762 74.1667 43.3074 72.9584 44.9324C71.9792 46.2553 71.0469 47.6251 70.1927 49.0314C69.9584 49.4272 70.0729 50.0366 70.0261 50.547C70.5 50.4116 71.0365 50.3751 71.4375 50.1251C72.4427 49.5001 73.375 48.7605 74.3594 48.0991C75.4896 47.3491 76.6979 46.8387 78.1094 46.9376C80.0365 47.073 80.9427 48.6564 80.0261 50.3439C79.1823 51.8855 77.8073 52.7762 76.2188 53.3647C72.724 54.6564 69.2084 55.8959 65.7136 57.198C64.8177 57.5366 63.9896 58.0522 63.1042 58.422C62.6563 58.6043 62.1511 58.6407 61.6719 58.7397C61.6406 58.2709 61.5104 57.7814 61.6042 57.3334C61.8542 56.1407 62.3698 54.9793 62.4688 53.7814C62.6094 52.1512 62.4427 50.4949 62.4427 48.8491C62.4427 47.1772 62.3594 45.4897 62.5573 43.8439C62.6563 43.0314 63.25 42.2397 63.75 41.5262C64.125 40.9897 64.7656 40.7084 65.4636 40.9637C66.1406 41.2084 66.4063 41.8074 66.5156 42.4637C66.599 43.0001 66.6042 43.547 66.6771 44.0834C66.724 44.4584 66.8229 44.8282 66.9063 45.2501Z" fill="#DCB253"/>
<path d="M28.396 62.1092C29.1825 62.1092 29.9741 62.1665 30.7554 62.0936C31.5991 62.0155 31.9012 61.5728 31.5054 60.8384C31.0106 59.9217 30.3648 59.0728 29.6773 58.2811C28.9846 57.4842 28.1252 56.828 27.4116 56.0415C26.9898 55.578 26.6252 55.0207 26.3752 54.4426C25.8283 53.1509 26.5991 51.9842 27.9898 51.8436C29.8387 51.6613 31.5419 52.1301 32.87 53.3697C34.3023 54.7082 35.6356 56.1874 36.8283 57.7499C39.1304 60.7551 41.3127 63.854 43.5314 66.927C43.9689 67.5311 44.4221 68.2551 43.9429 68.9582C43.495 69.6197 42.6877 69.5259 41.9689 69.3801C41.4116 69.2707 40.8439 69.1874 40.3127 68.9947C38.1304 68.2082 35.8752 68.1405 33.5835 68.1613C31.8127 68.177 30.0314 68.052 28.271 67.8384C26.9481 67.6822 25.7762 67.0415 24.8439 66.0676C23.4794 64.6457 23.8856 62.9947 25.7762 62.4217C26.6096 62.1665 28.3908 62.0624 28.396 62.1092Z" fill="#373ED4"/>
<mask id="mask1_211_13" style="mask-type:luminance" maskUnits="userSpaceOnUse" x="26" y="0" width="11" height="19">
<path d="M26 0.34375H36.6667V18.6667H26V0.34375Z" fill="white"/>
</mask>
<g mask="url(#mask1_211_13)">
<path d="M31.6356 4.51553C31.6928 3.82803 31.6824 3.13012 31.8231 2.46345C32.0887 1.21345 32.8074 0.489492 33.6876 0.453033C34.7189 0.406159 35.9689 1.24991 36.2033 2.38532C36.422 3.42699 36.4585 4.52595 36.4272 5.59887C36.3543 8.08324 36.1199 10.5676 36.0991 13.052C36.0887 14.4895 36.3908 15.9322 36.5106 17.3749C36.5314 17.6301 36.3647 17.8957 36.2866 18.1562C36.0262 18.0468 35.7189 17.9843 35.521 17.8072C35.1199 17.4478 34.7033 17.0676 34.4168 16.6197C33.5418 15.2395 32.2658 14.3385 30.9376 13.4635C29.172 12.302 27.5001 11.0103 26.6147 9.01553C26.3335 8.37491 26.146 7.58324 26.2397 6.90616C26.396 5.71345 27.4012 5.23949 28.5001 5.73428C29.0835 5.98949 29.5991 6.39053 30.1408 6.72907C30.9897 7.24991 31.4012 7.08324 31.6147 6.13532C31.6616 5.94262 31.7137 5.74991 31.7241 5.5572C31.7397 5.21345 31.7293 4.86449 31.7293 4.52074C31.6981 4.52074 31.6668 4.51553 31.6356 4.51553Z" fill="#DCB253"/>
</g>
</svg>
